<?xml version="1.0" encoding="iso-8859-1"?>
<!-- Generator: Adobe Illustrator 19.0.0, SVG Export Plug-In . SVG Version: 6.00 Build 0)  -->
<svg xmlns="http://www.w3.org/2000/svg" xmlns:xlink="http://www.w3.org/1999/xlink" version="1.1" id="Layer_1" x="0px" y="0px" viewBox="0 0 502 502" style="enable-background:new 0 0 502 502;" xml:space="preserve" width="512" height="512">
<g>
	<g>
		<ellipse style="fill:#E6E6E6;" cx="251" cy="327.399" rx="241" ry="52.703"/>
		<path style="fill:#FBB03B;" d="M421.609,292.472c-8.173-14.161-21.7-24.844-37.814-29.292c0.785-3.973,1.206-8.078,1.206-12.281    c0-34.794-28.206-63-63-63c-1.712,0-3.404,0.088-5.082,0.222c0.054-1.067,0.082-2.141,0.082-3.222c0-34.794-28.206-63-63-63    s-63,28.206-63,63c0,4.97,0.594,9.799,1.682,14.437c-31.035,3.593-55.184,29.728-55.657,61.613    c-22.283,0.688-41.653,12.939-52.303,30.956c-8.996,15.22-0.593,34.779,16.653,38.673c28.672,6.474,80.503,15.321,149.626,15.321    c72.709,0,125.031-8.794,153.681-15.263C421.683,326.797,430.321,307.569,421.609,292.472z"/>
	</g>
	<path d="M425.963,280.902c-7.938-10.825-18.803-19.37-31.172-24.494c0.139-1.836,0.209-3.675,0.209-5.51   c0-38.68-30.239-70.43-68.318-72.852c-3.464-37.053-34.738-66.148-72.682-66.148c-40.252,0-73,32.748-73,73   c0,2.145,0.097,4.295,0.288,6.441c-28.218,7.477-49.505,31.423-53.568,60.441c-18.744,2.891-35.501,12.911-46.95,28.086   C26.433,291.434,0,306.984,0,327.398c0,20.106,25.661,35.492,78.451,47.036C124.65,384.537,185.93,390.102,251,390.102   s126.35-5.564,172.549-15.667c52.79-11.544,78.451-26.93,78.451-47.036C502,307.596,477.107,292.373,425.963,280.902z    M381.133,272.819c13.296,3.67,24.892,12.655,31.814,24.651v0.001c2.508,4.344,2.78,9.498,0.748,14.14   c-2.08,4.752-6.168,8.131-11.217,9.27c-30.342,6.852-81.251,15.018-151.479,15.018c-5.447,0-10.773-0.06-16-0.164v-36.836   c0-5.522-4.478-10-10-10s-10,4.478-10,10v36.186c-48.955-2.237-86.717-8.683-111.424-14.262c-5.052-1.141-9.126-4.519-11.176-9.269   c-2.059-4.771-1.72-10.077,0.931-14.561c9.307-15.748,25.756-25.486,44.002-26.05l1.667-0.045c12.254,0,24.204,4.279,33.647,12.049   c1.862,1.531,4.111,2.277,6.348,2.277c2.887,0,5.751-1.243,7.729-3.646c3.509-4.265,2.896-10.567-1.369-14.076   c-10.672-8.78-23.664-14.318-37.301-16.03c3.912-19.454,18.561-35.28,37.722-40.614c4.671,12.251,12.604,23.143,23.027,31.37   c1.835,1.448,4.02,2.15,6.188,2.15c2.956,0,5.883-1.304,7.856-3.805c3.422-4.335,2.682-10.623-1.654-14.045   c-9.398-7.419-16.013-17.804-18.754-29.355c-0.009-0.041-0.012-0.082-0.022-0.122c-0.94-4.009-1.417-8.098-1.417-12.152   c0-29.225,23.775-53,53-53c3.315,0,6.556,0.321,9.704,0.906c-2.439,20.855-20.205,37.094-41.704,37.094c-5.522,0-10,4.478-10,10   s4.478,10,10,10c29.906,0,54.934-21.284,60.733-49.5c13.166,8.531,22.334,22.728,23.995,39.12   C273.784,186.56,249,215.884,249,250.898c0,5.522,4.478,10,10,10s10-4.478,10-10c0-27.767,21.467-50.598,48.674-52.809   c0.013-0.001,0.026,0,0.039-0.001l4.287-0.19c4.846,0,9.536,0.667,13.999,1.89c-6.489,11.214-9.999,24.055-9.999,37.11   c0,5.522,4.478,10,10,10s10-4.478,10-10c0-10.142,2.735-19.786,7.96-28.246c12.772,9.686,21.04,25.016,21.04,42.246   c0,0.147-0.01,0.294-0.011,0.442c-2.648-0.289-5.316-0.442-7.989-0.442c-16.58,0-32.208,5.419-45.195,15.67   c-4.336,3.422-5.076,9.71-1.654,14.045c1.974,2.501,4.9,3.806,7.856,3.805c2.169,0,4.354-0.702,6.188-2.15   c9.423-7.438,20.767-11.369,32.805-11.369c4.271,0,8.521,0.509,12.628,1.512L381.133,272.819z M419.276,354.896   c-44.838,9.805-104.6,15.205-168.276,15.205s-123.438-5.4-168.276-15.205C31.523,343.699,20,330.974,20,327.398   c0-3.346,9.841-14.344,51.141-24.775c-0.405,5.661,0.547,11.412,2.896,16.855c4.613,10.688,13.774,18.288,25.135,20.854   c31.452,7.102,83.325,15.566,151.828,15.566c72.07,0,124.55-8.434,155.883-15.508c11.315-2.555,20.477-10.12,25.134-20.759   c2.251-5.141,3.241-10.565,3.01-15.925C472.874,313.823,482,324.201,482,327.398C482,330.974,470.477,343.699,419.276,354.896z"/>
</g>















</svg>
