<?xml version="1.0" encoding="iso-8859-1"?>
<!-- Generator: Adobe Illustrator 14.0.0, SVG Export Plug-In . SVG Version: 6.00 Build 43363)  -->
<!DOCTYPE svg PUBLIC "-//W3C//DTD SVG 1.1//EN" "http://www.w3.org/Graphics/SVG/1.1/DTD/svg11.dtd">
<svg version="1.1" id="Layer_4" xmlns="http://www.w3.org/2000/svg" xmlns:xlink="http://www.w3.org/1999/xlink" x="0px" y="0px"
	 width="576px" height="576px" viewBox="0 0 576 576" style="enable-background:new 0 0 576 576;" xml:space="preserve">
<path style="fill:#FFE200;" d="M555.51,345.811v-0.004c-11.108,3.875-23.658,6.434-35.117,2.817
	c-12.287-5.95-15.705-20.393-22.193-31.307c-6.769-13.224-16.73-26.159-31.857-29.881c-7.258-2.251-14.93-2.854-22.498-2.264
	c-0.189-5.979-0.733-11.872-1.619-17.662c7.25-8.723,15.541-17.02,26.389-20.633c11.66-0.97,21.957,7.572,33.824,6.064
	c15.494-0.407,30.555-9.582,37.088-23.809c4.647-8.415,7.492-17.405,9.847-26.624l-1.198,1.458l0,0
	c-7.68,8.908-17.268,17.399-29.004,19.995c-13.611,0.987-23.795-9.806-34.872-16.013c-12.471-8.071-27.569-14.288-42.524-9.951
	c-7.584,1.719-14.68,5.143-21.047,9.582c-3.037-4.86-6.361-9.539-9.929-14.024c1.911-11.428,4.903-23.083,12.669-31.836
	c9.613-6.666,22.795-4.415,32.316-11.657c13.225-8.101,21.674-23.578,20.214-39.164c-0.179-9.608-2.208-18.819-4.776-27.98
	l-0.311,1.861l0,0c-2.2,11.556-6.26,23.704-15.119,31.819c-11.299,7.662-25.515,3.406-38.207,3.566
	c-14.838-0.753-31.021,1.413-41.808,12.649c-6.032,5.581-10.633,12.548-13.979,20.037c-4.688-2.504-9.524-4.79-14.492-6.834
	c-4.325-11.296-7.995-23.45-5.533-35.458c4.992-10.581,17.534-15.226,22.162-26.257c7.396-13.625,6.981-31.26-2.073-44.022
	c-4.967-8.234-11.33-15.195-18.131-21.845l0.663,1.768h-0.004c3.873,11.105,6.434,23.656,2.816,35.114
	c-5.95,12.286-20.391,15.707-31.305,22.195c-13.227,6.767-26.159,16.729-29.881,31.855c-2.447,7.894-2.951,16.275-2.082,24.478
	c-5.502,0.039-10.938,0.353-16.296,0.924c-9.276-7.555-18.361-16.182-22.187-27.675c-0.969-11.659,7.571-21.951,6.062-33.82
	c-0.405-15.499-9.579-30.56-23.808-37.086c-8.413-4.647-17.404-7.493-26.622-9.853l1.458,1.2h-0.002
	c8.906,7.682,17.4,17.27,19.996,29.003c0.99,13.615-9.806,23.798-16.014,34.873c-8.07,12.472-14.289,27.569-9.95,42.528
	c1.669,7.356,4.944,14.254,9.19,20.475c-5.484,3.072-10.758,6.453-15.797,10.119c-10.719-1.932-21.469-5.017-29.664-12.288
	c-6.67-9.613-4.418-22.796-11.66-32.319c-8.102-13.223-23.578-21.677-39.161-20.217c-9.61,0.186-18.821,2.213-27.983,4.78
	l1.863,0.307v0.005c11.553,2.197,23.701,6.255,31.818,15.12c7.664,11.297,3.404,25.512,3.568,38.206
	c-0.754,14.838,1.41,31.021,12.646,41.807c4.499,4.862,9.906,8.783,15.753,11.879c-3.546,6.098-6.666,12.449-9.325,19.028
	c-9.311,3.092-19.043,5.073-28.682,3.096c-10.585-4.99-15.224-17.533-26.258-22.16c-13.625-7.398-31.255-6.981-44.023,2.075
	c-8.23,4.964-15.191,11.327-21.844,18.13l1.768-0.663l0,0c11.107-3.871,23.656-6.433,35.116-2.816
	c12.287,5.955,15.704,20.392,22.194,31.308c6.766,13.225,16.73,26.156,31.854,29.883c6.239,1.932,12.784,2.65,19.305,2.438
	c0.265,6.415,0.942,12.728,2.008,18.916c0.077,0.527,0.15,1.061,0.232,1.587c-6.642,7.567-14.23,14.425-23.817,17.617
	c-11.658,0.966-21.949-7.572-33.818-6.064c-15.5,0.403-30.561,9.582-37.09,23.812c-4.647,8.411-7.491,17.402-9.85,26.618
	l1.197-1.456v0.001c7.682-8.906,17.273-17.399,29.004-19.995c13.617-0.992,23.798,9.805,34.873,16.013
	c12.473,8.073,27.57,14.29,42.529,9.951c6.915-1.569,13.43-4.559,19.354-8.438c3.428,5.252,7.184,10.29,11.236,15.087
	c-1.935,10.707-5.02,21.439-12.285,29.625c-9.613,6.671-22.795,4.419-32.319,11.661c-13.222,8.1-21.675,23.578-20.215,39.164
	c0.183,9.607,2.214,18.819,4.778,27.979l0.31-1.86h0.002c2.198-11.553,6.257-23.702,15.119-31.818
	c11.298-7.665,25.513-3.407,38.208-3.57c14.838,0.753,31.021-1.408,41.806-12.646c5.946-5.502,10.498-12.353,13.83-19.719
	c4.771,2.415,9.683,4.602,14.724,6.549c4.32,11.287,7.98,23.429,5.521,35.425c-4.99,10.585-17.534,15.224-22.16,26.258
	c-7.399,13.624-6.981,31.257,2.074,44.022c4.962,8.23,11.326,15.194,18.127,21.844l-0.661-1.769h0.002
	c-3.874-11.104-6.435-23.653-2.817-35.115c5.955-12.286,20.395-15.706,31.307-22.193c13.227-6.767,26.158-16.729,29.881-31.854
	c2.582-8.325,3-17.191,1.928-25.818c4.914-0.13,9.773-0.483,14.562-1.033c9.887,7.906,19.923,16.891,24,29.131
	c0.968,11.658-7.572,21.951-6.062,33.818c0.404,15.499,9.579,30.561,23.808,37.088c8.412,4.648,17.405,7.493,26.622,9.853
	l-1.456-1.198l0,0c-8.908-7.683-17.399-17.272-19.996-29.004c-0.986-13.615,9.807-23.801,16.014-34.874
	c8.07-12.472,14.289-27.568,9.951-42.527c-1.873-8.252-5.76-15.933-10.78-22.716c4.588-2.648,9.034-5.509,13.31-8.576
	c12.031,1.901,24.509,4.782,33.746,12.979c6.668,9.612,4.416,22.795,11.66,32.319c8.098,13.219,23.578,21.673,39.16,20.217
	c9.609-0.186,18.822-2.216,27.982-4.781l-1.863-0.31l0,0c-11.551-2.201-23.701-6.257-31.816-15.118
	c-7.664-11.302-3.404-25.515-3.569-38.21c0.754-14.837-1.409-31.021-12.646-41.808c-5.288-5.713-11.824-10.134-18.859-13.428
	c2.971-5.13,5.639-10.445,7.986-15.918c10.631-3.919,21.941-6.947,33.125-4.658c10.585,4.992,15.225,17.534,26.26,22.16
	c13.625,7.398,31.254,6.982,44.023-2.074c8.231-4.961,15.189-11.323,21.842-18.128L555.51,345.811z"/>
</svg>
